{
	"asset":{
		"generator":"Khronos glTF Blender I/O v4.0.44",
		"version":"2.0"
	},
	"scene":0,
	"scenes":[
		{
			"name":"Scene",
			"nodes":[
				0
			]
		}
	],
	"nodes":[
		{
			"mesh":0,
			"name":"spaceship_4",
			"rotation":[
				0,
				0.7071068286895752,
				0,
				0.7071068286895752
			]
		}
	],
	"materials":[
		{
			"doubleSided":true,
			"name":"Material.005",
			"pbrMetallicRoughness":{
				"metallicFactor":0,
				"roughnessFactor":0.5
			}
		}
	],
	"meshes":[
		{
			"name":"spaceship_4",
			"primitives":[
				{
					"attributes":{
						"COLOR_0":0,
						"POSITION":1,
						"NORMAL":2
					},
					"indices":3,
					"material":0
				}
			]
		}
	],
	"accessors":[
		{
			"bufferView":0,
			"componentType":5126,
			"count":138031,
			"type":"VEC4"
		},
		{
			"bufferView":1,
			"componentType":5126,
			"count":138031,
			"max":[
				0.9885612726211548,
				0.2111864984035492,
				0.6406415104866028
			],
			"min":[
				-0.9914438128471375,
				-0.2080228328704834,
				-0.642011821269989
			],
			"type":"VEC3"
		},
		{
			"bufferView":2,
			"componentType":5126,
			"count":138031,
			"type":"VEC3"
		},
		{
			"bufferView":3,
			"componentType":5125,
			"count":138156,
			"type":"SCALAR"
		}
	],
	"bufferViews":[
		{
			"buffer":0,
			"byteLength":2208496,
			"byteOffset":0,
			"target":34962
		},
		{
			"buffer":0,
			"byteLength":1656372,
			"byteOffset":2208496,
			"target":34962
		},
		{
			"buffer":0,
			"byteLength":1656372,
			"byteOffset":3864868,
			"target":34962
		},
		{
			"buffer":0,
			"byteLength":552624,
			"byteOffset":5521240,
			"target":34963
		}
	],
	"buffers":[
		{
			"byteLength":6073864,
			"uri":"spaceship4.bin"
		}
	]
}
