{
	"asset":{
		"generator":"Khronos glTF Blender I/O v4.0.44",
		"version":"2.0"
	},
	"scene":0,
	"scenes":[
		{
			"name":"Scene",
			"nodes":[
				0
			]
		}
	],
	"nodes":[
		{
			"mesh":0,
			"name":"spaceship_3",
			"rotation":[
				0,
				-1,
				0,
				1.910685676922942e-15
			]
		}
	],
	"materials":[
		{
			"doubleSided":true,
			"name":"Material.004",
			"pbrMetallicRoughness":{
				"metallicFactor":0,
				"roughnessFactor":0.5
			}
		}
	],
	"meshes":[
		{
			"name":"spaceship_3",
			"primitives":[
				{
					"attributes":{
						"COLOR_0":0,
						"POSITION":1,
						"NORMAL":2
					},
					"indices":3,
					"material":0
				}
			]
		}
	],
	"accessors":[
		{
			"bufferView":0,
			"componentType":5126,
			"count":189390,
			"type":"VEC4"
		},
		{
			"bufferView":1,
			"componentType":5126,
			"count":189390,
			"max":[
				0.6060426831245422,
				0.18078050017356873,
				0.985893189907074
			],
			"min":[
				-0.6047614216804504,
				-0.19426679611206055,
				-0.9915232062339783
			],
			"type":"VEC3"
		},
		{
			"bufferView":2,
			"componentType":5126,
			"count":189390,
			"type":"VEC3"
		},
		{
			"bufferView":3,
			"componentType":5125,
			"count":189516,
			"type":"SCALAR"
		}
	],
	"bufferViews":[
		{
			"buffer":0,
			"byteLength":3030240,
			"byteOffset":0,
			"target":34962
		},
		{
			"buffer":0,
			"byteLength":2272680,
			"byteOffset":3030240,
			"target":34962
		},
		{
			"buffer":0,
			"byteLength":2272680,
			"byteOffset":5302920,
			"target":34962
		},
		{
			"buffer":0,
			"byteLength":758064,
			"byteOffset":7575600,
			"target":34963
		}
	],
	"buffers":[
		{
			"byteLength":8333664,
			"uri":"spaceship3.bin"
		}
	]
}
