{
	"asset":{
		"generator":"Khronos glTF Blender I/O v4.0.44",
		"version":"2.0"
	},
	"scene":0,
	"scenes":[
		{
			"name":"Scene",
			"nodes":[
				0
			]
		}
	],
	"nodes":[
		{
			"mesh":0,
			"name":"spaceship_5",
			"rotation":[
				0,
				-1,
				0,
				4.371138828673793e-08
			]
		}
	],
	"materials":[
		{
			"doubleSided":true,
			"name":"Material.006",
			"pbrMetallicRoughness":{
				"metallicFactor":0,
				"roughnessFactor":0.5
			}
		}
	],
	"meshes":[
		{
			"name":"spaceship_5",
			"primitives":[
				{
					"attributes":{
						"COLOR_0":0,
						"POSITION":1,
						"NORMAL":2
					},
					"indices":3,
					"material":0
				}
			]
		}
	],
	"accessors":[
		{
			"bufferView":0,
			"componentType":5126,
			"count":136050,
			"type":"VEC4"
		},
		{
			"bufferView":1,
			"componentType":5126,
			"count":136050,
			"max":[
				0.5336447954177856,
				0.24084444344043732,
				0.9884501695632935
			],
			"min":[
				-0.5357398390769958,
				-0.24115172028541565,
				-0.9917203783988953
			],
			"type":"VEC3"
		},
		{
			"bufferView":2,
			"componentType":5126,
			"count":136050,
			"type":"VEC3"
		},
		{
			"bufferView":3,
			"componentType":5125,
			"count":136152,
			"type":"SCALAR"
		}
	],
	"bufferViews":[
		{
			"buffer":0,
			"byteLength":2176800,
			"byteOffset":0,
			"target":34962
		},
		{
			"buffer":0,
			"byteLength":1632600,
			"byteOffset":2176800,
			"target":34962
		},
		{
			"buffer":0,
			"byteLength":1632600,
			"byteOffset":3809400,
			"target":34962
		},
		{
			"buffer":0,
			"byteLength":544608,
			"byteOffset":5442000,
			"target":34963
		}
	],
	"buffers":[
		{
			"byteLength":5986608,
			"uri":"spaceship5.bin"
		}
	]
}
