{
	"asset":{
		"generator":"Khronos glTF Blender I/O v4.0.44",
		"version":"2.0"
	},
	"scene":0,
	"scenes":[
		{
			"name":"Scene",
			"nodes":[
				0
			]
		}
	],
	"nodes":[
		{
			"mesh":0,
			"name":"spaceship_2",
			"rotation":[
				-1,
				0,
				0,
				4.371138828673793e-08
			]
		}
	],
	"materials":[
		{
			"doubleSided":true,
			"name":"Material.003",
			"pbrMetallicRoughness":{
				"metallicFactor":0,
				"roughnessFactor":0.5
			}
		}
	],
	"meshes":[
		{
			"name":"spaceship_2",
			"primitives":[
				{
					"attributes":{
						"COLOR_0":0,
						"POSITION":1,
						"NORMAL":2
					},
					"indices":3,
					"material":0
				}
			]
		}
	],
	"accessors":[
		{
			"bufferView":0,
			"componentType":5126,
			"count":172598,
			"type":"VEC4"
		},
		{
			"bufferView":1,
			"componentType":5126,
			"count":172598,
			"max":[
				0.573833167552948,
				0.30673399567604065,
				0.9914672374725342
			],
			"min":[
				-0.574762225151062,
				-0.331374853849411,
				-0.9920376539230347
			],
			"type":"VEC3"
		},
		{
			"bufferView":2,
			"componentType":5126,
			"count":172598,
			"type":"VEC3"
		},
		{
			"bufferView":3,
			"componentType":5125,
			"count":172752,
			"type":"SCALAR"
		}
	],
	"bufferViews":[
		{
			"buffer":0,
			"byteLength":2761568,
			"byteOffset":0,
			"target":34962
		},
		{
			"buffer":0,
			"byteLength":2071176,
			"byteOffset":2761568,
			"target":34962
		},
		{
			"buffer":0,
			"byteLength":2071176,
			"byteOffset":4832744,
			"target":34962
		},
		{
			"buffer":0,
			"byteLength":691008,
			"byteOffset":6903920,
			"target":34963
		}
	],
	"buffers":[
		{
			"byteLength":7594928,
			"uri":"spaceship1.bin"
		}
	]
}
