{
	"asset":{
		"generator":"Khronos glTF Blender I/O v4.0.44",
		"version":"2.0"
	},
	"scene":0,
	"scenes":[
		{
			"name":"Scene",
			"nodes":[
				0
			]
		}
	],
	"nodes":[
		{
			"mesh":0,
			"name":"spaceship_0",
			"rotation":[
				-1,
				0,
				0,
				4.371138828673793e-08
			]
		}
	],
	"materials":[
		{
			"doubleSided":true,
			"name":"Material.002",
			"pbrMetallicRoughness":{
				"metallicFactor":0,
				"roughnessFactor":0.5
			}
		}
	],
	"meshes":[
		{
			"name":"spaceship_0",
			"primitives":[
				{
					"attributes":{
						"COLOR_0":0,
						"POSITION":1,
						"NORMAL":2
					},
					"indices":3,
					"material":0
				}
			]
		}
	],
	"accessors":[
		{
			"bufferView":0,
			"componentType":5126,
			"count":281502,
			"type":"VEC4"
		},
		{
			"bufferView":1,
			"componentType":5126,
			"count":281502,
			"max":[
				0.9897059202194214,
				0.28967949748039246,
				0.912784218788147
			],
			"min":[
				-0.9899683594703674,
				-0.28891587257385254,
				-0.9198858737945557
			],
			"type":"VEC3"
		},
		{
			"bufferView":2,
			"componentType":5126,
			"count":281502,
			"type":"VEC3"
		},
		{
			"bufferView":3,
			"componentType":5125,
			"count":281712,
			"type":"SCALAR"
		}
	],
	"bufferViews":[
		{
			"buffer":0,
			"byteLength":4504032,
			"byteOffset":0,
			"target":34962
		},
		{
			"buffer":0,
			"byteLength":3378024,
			"byteOffset":4504032,
			"target":34962
		},
		{
			"buffer":0,
			"byteLength":3378024,
			"byteOffset":7882056,
			"target":34962
		},
		{
			"buffer":0,
			"byteLength":1126848,
			"byteOffset":11260080,
			"target":34963
		}
	],
	"buffers":[
		{
			"byteLength":12386928,
			"uri":"spaceship0.bin"
		}
	]
}
