{
	"asset":{
		"generator":"Khronos glTF Blender I/O v4.0.44",
		"version":"2.0"
	},
	"scene":0,
	"scenes":[
		{
			"name":"Scene",
			"nodes":[
				0
			]
		}
	],
	"nodes":[
		{
			"mesh":0,
			"name":"spaceship_1",
			"rotation":[
				-1,
				0,
				0,
				4.371138828673793e-08
			]
		}
	],
	"materials":[
		{
			"doubleSided":true,
			"name":"Material.001",
			"pbrMetallicRoughness":{
				"metallicFactor":0,
				"roughnessFactor":0.5
			}
		}
	],
	"meshes":[
		{
			"name":"spaceship_1",
			"primitives":[
				{
					"attributes":{
						"COLOR_0":0,
						"POSITION":1,
						"NORMAL":2
					},
					"indices":3,
					"material":0
				}
			]
		}
	],
	"accessors":[
		{
			"bufferView":0,
			"componentType":5126,
			"count":192033,
			"type":"VEC4"
		},
		{
			"bufferView":1,
			"componentType":5126,
			"count":192033,
			"max":[
				0.611802339553833,
				0.30460914969444275,
				0.9904017448425293
			],
			"min":[
				-0.6108706593513489,
				-0.26970332860946655,
				-0.9919437170028687
			],
			"type":"VEC3"
		},
		{
			"bufferView":2,
			"componentType":5126,
			"count":192033,
			"type":"VEC3"
		},
		{
			"bufferView":3,
			"componentType":5125,
			"count":192240,
			"type":"SCALAR"
		}
	],
	"bufferViews":[
		{
			"buffer":0,
			"byteLength":3072528,
			"byteOffset":0,
			"target":34962
		},
		{
			"buffer":0,
			"byteLength":2304396,
			"byteOffset":3072528,
			"target":34962
		},
		{
			"buffer":0,
			"byteLength":2304396,
			"byteOffset":5376924,
			"target":34962
		},
		{
			"buffer":0,
			"byteLength":768960,
			"byteOffset":7681320,
			"target":34963
		}
	],
	"buffers":[
		{
			"byteLength":8450280,
			"uri":"spaceship2.bin"
		}
	]
}
